# xmcd
#
# Track frame offsets:
#	150
#	136309
#	169930
#	204427
#	235225
#
# Disc length: 3661 seconds
#
# Revision: 0
# Processed by: cddbd v1.5.2PL0 Copyright (c) Steve Scherf et al.
# Submitted via: audiograbber 1.83.01
#
DISCID=3f0e4b05
DTITLE=Grateful Dead - 94-08-01 The Palace, Auburn Hills MI
DYEAR=1900
DGENRE=
TTITLE0=Space
TTITLE1=All Along The Watchtower
TTITLE2=Stella Blue
TTITLE3=Satisfaction
TTITLE4=Liberty
EXTD=
EXTT0=
EXTT1=
EXTT2=
EXTT3=
EXTT4=
PLAYORDER=
